<?xml version="1.0" encoding="utf-8"?>
<!-- Generator: Adobe Illustrator 16.0.0, SVG Export Plug-In . SVG Version: 6.00 Build 0)  -->
<!DOCTYPE svg PUBLIC "-//W3C//DTD SVG 1.1//EN" "http://www.w3.org/Graphics/SVG/1.1/DTD/svg11.dtd">
<svg version="1.1" id="Layer_1" xmlns="http://www.w3.org/2000/svg" xmlns:xlink="http://www.w3.org/1999/xlink" x="0px" y="0px"
	 width="400px" height="400px" viewBox="0 0 400 400" enable-background="new 0 0 400 400" xml:space="preserve">
<path fill="#FFFFFF" stroke="#000000" stroke-width="5" stroke-miterlimit="10" d="M147.964,298.617c0-28.559,0-82.591,0-110.913
	c0-39.647,52.036-41.301,52.036-41.301s52.036,0.36,52.036,35.286c0,25.494,0,86.07,0,116.927"/>
<g>
	<path fill="#FFFFFF" d="M200,160.616c-31.204,0-56.59-25.386-56.59-56.59c0-31.203,25.386-56.59,56.59-56.59
		c31.202,0,56.59,25.387,56.59,56.59C256.59,135.232,231.202,160.616,200,160.616z"/>
	<path fill="none" stroke="#000000" stroke-width="5" stroke-miterlimit="10" d="M200,160.616c-31.204,0-56.59-25.386-56.59-56.59
		c0-31.203,25.386-56.59,56.59-56.59c31.202,0,56.59,25.387,56.59,56.59C256.59,135.232,231.202,160.616,200,160.616z"/>
</g>
<circle fill="#FFFFFF" stroke="#000000" stroke-width="5" stroke-miterlimit="10" cx="200" cy="104.026" r="40.385"/>
<path fill="#FFFFFF" stroke="#000000" stroke-width="5" stroke-miterlimit="10" d="M159.615,298.259c0,0,0-69.872,0-100.642
	c0-30.77,40.385-32.053,40.385-32.053s40.385,0.28,40.385,27.385s0,105.31,0,105.31"/>
</svg>
