<?xml version="1.0" encoding="utf-8"?>
<!-- Generator: Adobe Illustrator 16.0.0, SVG Export Plug-In . SVG Version: 6.00 Build 0)  -->
<!DOCTYPE svg PUBLIC "-//W3C//DTD SVG 1.1//EN" "http://www.w3.org/Graphics/SVG/1.1/DTD/svg11.dtd">
<svg version="1.1" id="Layer_1" xmlns="http://www.w3.org/2000/svg" xmlns:xlink="http://www.w3.org/1999/xlink" x="0px" y="0px"
	 width="400px" height="400px" viewBox="0 0 400 400" enable-background="new 0 0 400 400" xml:space="preserve">
<circle fill="#FFFFFF" stroke="#000000" stroke-width="5" stroke-miterlimit="10" cx="159.615" cy="115.648" r="40.385"/>
<path fill="#FFFFFF" stroke="#000000" stroke-width="5" stroke-miterlimit="10" d="M79.615,305.259c0,0,0-69.872,0-100.642
	c0-30.77,40.385-32.053,40.385-32.053s40.385,0.28,40.385,27.385s0,105.31,0,105.31"/>
<path fill="#FFFFFF" stroke="#000000" stroke-width="5" stroke-miterlimit="10" d="M160.385,305.259c0,0,0-69.872,0-100.642
	c0-30.77,40.385-32.053,40.385-32.053s40.385,0.28,40.385,27.385s0,105.31,0,105.31"/>
<path fill="#FFFFFF" stroke="#000000" stroke-width="5" stroke-miterlimit="10" d="M241.154,303.259c0,0,0-69.872,0-100.642
	c0-30.77,40.385-32.053,40.385-32.053s40.385,0.28,40.385,27.385s0,105.31,0,105.31"/>
<circle fill="#FFFFFF" stroke="#000000" stroke-width="5" stroke-miterlimit="10" cx="241.154" cy="115.648" r="40.385"/>
</svg>
