<?xml version="1.0" encoding="utf-8"?>
<!-- Generator: Adobe Illustrator 16.0.0, SVG Export Plug-In . SVG Version: 6.00 Build 0)  -->
<!DOCTYPE svg PUBLIC "-//W3C//DTD SVG 1.1//EN" "http://www.w3.org/Graphics/SVG/1.1/DTD/svg11.dtd">
<svg version="1.1" id="Layer_1" xmlns="http://www.w3.org/2000/svg" xmlns:xlink="http://www.w3.org/1999/xlink" x="0px" y="0px"
	 width="400px" height="400px" viewBox="0 0 400 400" enable-background="new 0 0 400 400" xml:space="preserve">
<circle fill="#FFFFFF" stroke="#000000" stroke-width="5" stroke-miterlimit="10" cx="92.907" cy="120.663" r="40.385"/>
<path fill="#FFFFFF" stroke="#000000" stroke-width="5" stroke-miterlimit="10" d="M52.522,314.896c0,0,0-69.872,0-100.642
	c0-30.77,40.385-32.053,40.385-32.053s40.385,0.28,40.385,27.385s0,105.31,0,105.31"/>
<path fill="none" stroke="#000000" stroke-width="5" stroke-miterlimit="10" d="M166,119.664c0,0,6.945-15.454,22.398,0
	s19.479,0,26.781,0"/>
<line fill="none" stroke="#000000" stroke-width="5" stroke-miterlimit="10" x1="249.18" y1="118.663" x2="215.18" y2="159.048"/>
<line fill="none" stroke="#000000" stroke-width="5" stroke-miterlimit="10" x1="215.18" y1="80.278" x2="249.18" y2="120.663"/>
<circle fill="#FFFFFF" stroke="#000000" stroke-width="5" stroke-miterlimit="10" cx="321.115" cy="123.076" r="40.385"/>
<path fill="#FFFFFF" stroke="#000000" stroke-width="5" stroke-miterlimit="10" d="M280.73,317.309c0,0,0-69.872,0-100.642
	c0-30.77,40.385-32.053,40.385-32.053s40.385,0.28,40.385,27.385s0,105.31,0,105.31"/>
</svg>
